<?xml version="1.0" encoding="iso-8859-1"?>
<!-- Generator: Adobe Illustrator 19.0.0, SVG Export Plug-In . SVG Version: 6.00 Build 0)  -->
<svg version="1.1" id="Capa_1" xmlns="http://www.w3.org/2000/svg" xmlns:xlink="http://www.w3.org/1999/xlink" x="0px" y="0px"
	 viewBox="0 0 479.992 479.992" style="enable-background:new 0 0 479.992 479.992;" xml:space="preserve">
<g>
	
		<linearGradient id="SVGID_1_" gradientUnits="userSpaceOnUse" x1="-26.8652" y1="555.955" x2="-26.8652" y2="617.469" gradientTransform="matrix(8 0 0 -8 454.9176 4941)">
		<stop  offset="0" style="stop-color:#fff"/>
		<stop  offset="1" style="stop-color:#00E7F0"/>
	</linearGradient>
	<path style="fill:url(#SVGID_1_);" d="M272.868,50.488c-4.341-0.824-8.527,2.028-9.351,6.368c-0.824,4.341,2.028,8.527,6.368,9.351
		c0.193,0.037,0.387,0.066,0.583,0.088C379.637,83.116,454.5,185.251,437.679,294.419S318.725,478.451,209.556,461.631
		C112.023,446.603,40.03,362.683,40.012,264c-0.499-98.641,71.387-182.74,168.904-197.6c4.367-0.68,7.356-4.773,6.676-9.14
		c-0.68-4.367-4.773-7.356-9.14-6.676l0,0C88.607,69.119,8.1,179.676,26.635,297.521s129.092,198.352,246.937,179.817
		C378.603,460.819,455.993,370.322,456.012,264C455.478,157.587,377.96,67.215,272.868,50.488L272.868,50.488z"/>
	
		<linearGradient id="SVGID_2_" gradientUnits="userSpaceOnUse" x1="-26.8632" y1="555.955" x2="-26.8632" y2="617.469" gradientTransform="matrix(8 0 0 -8 454.9176 4941)">
		<stop  offset="0" style="stop-color:#fff"/>
		<stop  offset="1" style="stop-color:#00E7F0"/>
	</linearGradient>
	<path style="fill:url(#SVGID_2_);" d="M240.012,272c4.418,0,8-3.582,8-8V8c0-4.418-3.582-8-8-8s-8,3.582-8,8v256
		C232.012,268.418,235.594,272,240.012,272z"/>
</g>
<g>
</g>
<g>
</g>
<g>
</g>
<g>
</g>
<g>
</g>
<g>
</g>
<g>
</g>
<g>
</g>
<g>
</g>
<g>
</g>
<g>
</g>
<g>
</g>
<g>
</g>
<g>
</g>
<g>
</g>
</svg>
